<svg width="32" height="32" viewBox="0 0 32 32" fill="none" xmlns="http://www.w3.org/2000/svg">
<g id="ic_edit">
<path id="Vector" d="M8.88144 24C8.75963 23.9998 8.6392 23.9742 8.52781 23.9249C8.41641 23.8756 8.31649 23.8037 8.23439 23.7137C8.15081 23.6245 8.08703 23.5186 8.04724 23.4029C8.00744 23.2873 7.99254 23.1646 8.00349 23.0428L8.21859 20.6769L18.1552 10.7411L21.2605 13.8464L11.3265 23.7813L8.96133 23.9965C8.93477 23.9989 8.90811 24.0001 8.88144 24ZM21.8804 13.2255L18.7759 10.1202L20.6381 8.25756C20.7196 8.17591 20.8164 8.11114 20.923 8.06694C21.0296 8.02275 21.1438 8 21.2592 8C21.3746 8 21.4888 8.02275 21.5954 8.06694C21.702 8.11114 21.7988 8.17591 21.8804 8.25756L23.7425 10.1202C23.8241 10.2018 23.8889 10.2986 23.9331 10.4052C23.9773 10.5118 24 10.6261 24 10.7415C24 10.8569 23.9773 10.9712 23.9331 11.0778C23.8889 11.1844 23.8241 11.2813 23.7425 11.3628L21.8813 13.2246L21.8804 13.2255Z" fill="#FFA011"/>
</g>
</svg>
