<svg width="33" height="32" viewBox="0 0 33 32" fill="none" xmlns="http://www.w3.org/2000/svg">
<path d="M24.3444 14.4332H23.7V14.4H16.5V17.6H21.0212C20.3616 19.4628 18.5892 20.8 16.5 20.8C13.8492 20.8 11.7 18.6508 11.7 16C11.7 13.3492 13.8492 11.2 16.5 11.2C17.7236 11.2 18.8368 11.6616 19.6844 12.4156L21.9472 10.1528C20.5184 8.8212 18.6072 8 16.5 8C12.082 8 8.5 11.582 8.5 16C8.5 20.418 12.082 24 16.5 24C20.918 24 24.5 20.418 24.5 16C24.5 15.4636 24.4448 14.94 24.3444 14.4332Z" fill="#FFC107"/>
<path d="M9.42236 12.2764L12.0508 14.204C12.762 12.4432 14.4844 11.2 16.5 11.2C17.7236 11.2 18.8368 11.6616 19.6844 12.4156L21.9472 10.1528C20.5184 8.8212 18.6072 8 16.5 8C13.4272 8 10.7624 9.7348 9.42236 12.2764Z" fill="#FF3D00"/>
<path d="M16.4999 24C18.5663 24 20.4439 23.2092 21.8635 21.9232L19.3875 19.828C18.5573 20.4594 17.5429 20.8008 16.4999 20.8C14.4191 20.8 12.6523 19.4732 11.9867 17.6216L9.37793 19.6316C10.7019 22.2224 13.3907 24 16.4999 24Z" fill="#4CAF50"/>
<path d="M24.3444 14.4332H23.7V14.4H16.5V17.6H21.0212C20.7057 18.4866 20.1373 19.2613 19.3864 19.8284L19.3876 19.8276L21.8636 21.9228C21.6884 22.082 24.5 20 24.5 16C24.5 15.4636 24.4448 14.94 24.3444 14.4332Z" fill="#1976D2"/>
</svg>
