<svg width="189" height="34" viewBox="0 0 189 34" fill="none" xmlns="http://www.w3.org/2000/svg">
<path d="M47.5124 26.9014C45.1766 26.9014 43.2906 26.2609 41.8547 24.9798C40.4378 23.6787 39.7294 21.9071 39.7294 19.6652H44.1235C44.1235 20.1656 44.2097 20.616 44.382 21.0164C44.5735 21.3967 44.8223 21.707 45.1287 21.9472C45.4542 22.1874 45.818 22.3675 46.22 22.4876C46.6221 22.6077 47.0433 22.6678 47.4837 22.6678C48.3644 22.6678 49.1207 22.4476 49.7525 22.0072C50.4035 21.5668 50.729 20.9663 50.729 20.2057C50.729 19.8854 50.6524 19.6052 50.4992 19.365C50.3461 19.1047 50.1642 18.9046 49.9536 18.7644C49.7621 18.6043 49.4558 18.4442 49.0345 18.284C48.6325 18.1239 48.2878 18.0038 48.0006 17.9237C47.7135 17.8437 47.2827 17.7336 46.7083 17.5934C46.2488 17.4733 45.9041 17.3833 45.6744 17.3232C45.4446 17.2632 45.1 17.1631 44.6405 17.0229C44.2001 16.8828 43.8555 16.7627 43.6066 16.6626C43.3768 16.5425 43.0705 16.3824 42.6875 16.1822C42.3046 15.9821 42.0078 15.7819 41.7972 15.5817C41.5866 15.3815 41.3473 15.1313 41.0792 14.8311C40.8303 14.5308 40.6389 14.2205 40.5048 13.9003C40.3708 13.56 40.256 13.1796 40.1602 12.7593C40.0645 12.3189 40.0166 11.8585 40.0166 11.3781C40.0166 9.37638 40.6676 7.82505 41.9695 6.7241C43.2715 5.62316 45.0521 5.07269 47.3114 5.07269C49.5898 5.07269 51.3608 5.6732 52.6245 6.87423C53.9073 8.07526 54.5487 9.72668 54.5487 11.8285H50.2408C50.2408 10.9677 49.944 10.3172 49.3505 9.87681C48.7761 9.41642 48.0581 9.18622 47.1965 9.18622C46.4306 9.18622 45.7605 9.35636 45.1861 9.69666C44.6309 10.0369 44.3533 10.5274 44.3533 11.1679C44.3533 11.4682 44.4203 11.7384 44.5543 11.9786C44.7075 12.1988 44.8798 12.389 45.0713 12.5491C45.2627 12.6892 45.5595 12.8394 45.9616 12.9995C46.3636 13.1396 46.6987 13.2497 46.9667 13.3298C47.2539 13.3898 47.6752 13.4899 48.2304 13.63C48.8431 13.7902 49.3026 13.9203 49.6089 14.0204C49.9153 14.1004 50.3556 14.2506 50.93 14.4708C51.5044 14.6709 51.9448 14.8711 52.2511 15.0713C52.5766 15.2714 52.95 15.5417 53.3712 15.882C53.7924 16.2022 54.1083 16.5625 54.3189 16.9629C54.5487 17.3432 54.7402 17.8136 54.8933 18.3741C55.0656 18.9146 55.1518 19.5051 55.1518 20.1456C55.1518 21.6069 54.7976 22.858 54.0892 23.8988C53.3808 24.9397 52.4617 25.7004 51.3321 26.1808C50.2216 26.6612 48.9484 26.9014 47.5124 26.9014Z" fill="#FEA300"/>
<path d="M72.9619 26.4811H67.8786L62.9101 18.7344V26.4811H58.7171V4.41212H62.9101V17.4733L67.5627 10.2671H72.4163L67.1606 17.9838L72.9619 26.4811Z" fill="#FEA300"/>
<path d="M74.835 8.10529V4.02178H79.028V8.10529H74.835ZM74.835 26.4811V10.2671H79.028V26.4811H74.835Z" fill="#FEA300"/>
<path d="M83.0526 26.4811V4.41212H87.2456V26.4811H83.0526Z" fill="#FEA300"/>
<path d="M91.2702 26.4811V4.41212H95.4632V26.4811H91.2702Z" fill="#FEA300"/>
<path d="M112.153 10.2371H115.284V26.451H111.981L111.636 25.0098C110.219 26.2909 108.544 26.9314 106.61 26.9314C104.274 26.9314 102.331 26.1208 100.78 24.4994C99.2485 22.858 98.4826 20.8062 98.4826 18.3441C98.4826 15.902 99.2485 13.8702 100.78 12.2488C102.331 10.6275 104.274 9.81676 106.61 9.81676C108.582 9.81676 110.277 10.4773 111.694 11.7985L112.153 10.2371ZM103.911 21.5268C104.715 22.3675 105.72 22.7879 106.926 22.7879C108.152 22.7879 109.166 22.3675 109.97 21.5268C110.775 20.6861 111.177 19.6252 111.177 18.3441C111.177 17.063 110.775 16.0021 109.97 15.1613C109.166 14.3206 108.161 13.9003 106.955 13.9003C106.151 13.9003 105.423 14.1004 104.772 14.5008C104.14 14.8811 103.643 15.4116 103.279 16.0921C102.915 16.7527 102.733 17.5034 102.733 18.3441C102.733 19.6252 103.126 20.6861 103.911 21.5268Z" fill="#FEA300"/>
<path d="M126.525 26.9314C124.993 26.9314 123.596 26.5611 122.332 25.8205C121.088 25.0598 120.102 24.019 119.374 22.6978C118.666 21.3767 118.311 19.9154 118.311 18.3141C118.311 15.892 119.096 13.8702 120.666 12.2488C122.236 10.6275 124.199 9.81676 126.554 9.81676C128.564 9.81676 130.287 10.4273 131.723 11.6483C133.159 12.8494 134.069 14.4507 134.452 16.4525H130.287C129.943 15.6718 129.435 15.0613 128.765 14.6209C128.114 14.1605 127.368 13.9303 126.525 13.9303C125.396 13.9303 124.448 14.3506 123.682 15.1914C122.935 16.0321 122.562 17.083 122.562 18.3441C122.562 19.6052 122.945 20.6661 123.711 21.5268C124.477 22.3875 125.415 22.8179 126.525 22.8179C127.368 22.8179 128.114 22.5877 128.765 22.1273C129.416 21.6469 129.924 20.9663 130.287 20.0856H134.509C134.126 22.1473 133.207 23.8088 131.752 25.0699C130.297 26.3109 128.555 26.9314 126.525 26.9314Z" fill="#FEA300"/>
<path d="M144.764 22.5777H146.66V26.4811H143.701C142.572 26.4811 141.586 26.2509 140.743 25.7905C139.92 25.3301 139.288 24.6695 138.848 23.8088C138.408 22.928 138.187 21.8871 138.187 20.6861V13.7802H135.373V12.8494L141.519 6.03351H142.294V10.2671H146.573V13.7802H142.38V20.1156C142.38 20.8963 142.581 21.5068 142.983 21.9472C143.405 22.3675 143.998 22.5777 144.764 22.5777Z" fill="#FEA300"/>
<path d="M149.523 8.10529V4.02178H153.716V8.10529H149.523ZM149.523 26.4811V10.2671H153.716V26.4811H149.523Z" fill="#FEA300"/>
<path d="M167.907 10.2671H172.272L166.098 26.4811H162.22L155.931 10.2671H160.382L164.202 21.1365L167.907 10.2671Z" fill="#FEA300"/>
<path d="M189 18.3141C189 18.7344 188.971 19.1648 188.914 19.6052H177.196C177.369 20.7061 177.78 21.5568 178.431 22.1574C179.101 22.7379 179.953 23.0281 180.987 23.0281C181.696 23.0281 182.337 22.868 182.911 22.5477C183.486 22.2074 183.936 21.747 184.261 21.1665H188.684C188.11 22.928 187.133 24.3292 185.755 25.3701C184.376 26.411 182.787 26.9314 180.987 26.9314C178.69 26.9314 176.775 26.1107 175.243 24.4693C173.712 22.8279 172.946 20.7962 172.946 18.3741C172.946 17.4133 173.07 16.4925 173.319 15.6117C173.587 14.731 173.961 13.9403 174.439 13.2397C174.937 12.5391 175.511 11.9386 176.162 11.4382C176.813 10.9177 177.55 10.5174 178.374 10.2371C179.197 9.95688 180.068 9.81676 180.987 9.81676C182.538 9.81676 183.926 10.1971 185.152 10.9577C186.396 11.7184 187.344 12.7493 187.995 14.0504C188.665 15.3515 189 16.7727 189 18.3141ZM180.987 13.54C180.049 13.54 179.255 13.8102 178.604 14.3507C177.972 14.8911 177.541 15.6418 177.311 16.6026H184.807C184.615 15.942 184.338 15.3915 183.974 14.9512C183.61 14.4908 183.17 14.1405 182.653 13.9003C182.155 13.6601 181.6 13.54 180.987 13.54Z" fill="#FEA300"/>
<path fill-rule="evenodd" clip-rule="evenodd" d="M19.7082 11.0512C22.6272 11.0512 24.9934 8.57727 24.9934 5.52558C24.9934 2.47388 22.6272 0 19.7082 0C16.7893 0 14.4231 2.47388 14.4231 5.52558C14.4231 8.57727 16.7893 11.0512 19.7082 11.0512ZM19.7082 7.92347C20.975 7.92347 22.0018 6.8499 22.0018 5.52558C22.0018 4.20126 20.975 3.12768 19.7082 3.12768C18.4415 3.12768 17.4147 4.20126 17.4147 5.52558C17.4147 6.8499 18.4415 7.92347 19.7082 7.92347Z" fill="#FEA300"/>
<path d="M14.8109 22.2455C14.4913 22.5331 14.1036 22.8919 13.6618 23.3081C12.4613 24.4389 10.92 25.9372 9.39207 27.4391C7.86621 28.939 6.36218 30.4339 5.23904 31.5545C4.67764 32.1146 4.21176 32.5808 3.88636 32.9069C3.72366 33.0699 3.5961 33.1979 3.5093 33.285L3.37728 33.4176C3.37728 33.4176 3.3768 33.4181 2.16762 32.1034L3.37728 33.4176C2.58331 34.2158 1.32029 34.1905 0.556815 33.3604C-0.206654 32.5303 -0.181935 31.2103 0.612029 30.4121L1.87079 31.7807C0.612032 30.4121 0.612029 30.4121 0.612029 30.4121L0.746726 30.2769C0.834307 30.1889 0.962703 30.0601 1.12629 29.8962C1.45344 29.5684 1.92142 29.1001 2.48522 28.5376C3.61247 27.4129 5.12421 25.9103 6.65981 24.4009C8.19329 22.8935 9.7592 21.371 10.9918 20.2099C11.6059 19.6314 12.1521 19.1287 12.5762 18.7588C12.7856 18.576 12.9868 18.4068 13.1625 18.2718C13.2487 18.2056 13.3534 18.1285 13.465 18.0571L13.4711 18.0532C13.5374 18.0107 13.7944 17.8456 14.1328 17.7593C14.5976 17.6406 14.9848 17.7202 15.1353 17.7556C15.3263 17.8005 15.4882 17.8639 15.6001 17.9125C15.8264 18.0108 16.0487 18.1371 16.2385 18.2531C16.6289 18.4917 17.0945 18.8188 17.5827 19.1814C18.57 19.9145 19.792 20.8991 20.9734 21.8925C22.1564 22.8872 23.326 23.9137 24.2091 24.7368C24.6467 25.1446 25.0377 25.5244 25.33 25.8359C25.4717 25.9869 25.6248 26.1582 25.7549 26.3298C25.8176 26.4125 25.91 26.5408 25.9966 26.6983L26.0007 26.7057C26.0503 26.7954 26.2872 27.223 26.2872 27.8095C26.2872 28.7931 25.679 29.347 25.5019 29.4943C25.2706 29.6867 25.0448 29.7922 24.9338 29.8407C24.6908 29.9467 24.4363 30.0147 24.2499 30.0592C23.8484 30.1551 23.3325 30.2401 22.7868 30.3165C21.6767 30.4719 20.2225 30.621 18.7989 30.75C17.3684 30.8796 15.9407 30.9912 14.8725 31.0704C14.3379 31.11 13.8922 31.1416 13.5798 31.1632C13.4236 31.1741 13.3007 31.1824 13.2166 31.1881L13.0865 31.1968C13.0865 31.1968 13.0862 31.1969 12.9608 29.1159L13.0865 31.1968C11.9872 31.2693 11.0396 30.3963 10.9704 29.247C10.9011 28.0977 11.7361 27.1073 12.8354 27.0349L12.9119 28.3036C12.8354 27.0349 12.8354 27.0349 12.8354 27.0349L12.9595 27.0266C13.0414 27.021 13.162 27.0128 13.3156 27.0021C13.623 26.9808 14.0626 26.9497 14.5904 26.9106C15.647 26.8323 17.0523 26.7223 18.4547 26.5953C18.9784 26.5479 19.4979 26.4984 19.9961 26.4476C19.5118 26.0239 18.996 25.5815 18.4735 25.1421C17.3245 24.176 16.1705 23.2478 15.2729 22.5813C15.105 22.4566 14.9507 22.3445 14.8109 22.2455Z" fill="#FEA300"/>
<path d="M8.973 15.7493C9.55659 15.058 10.1702 14.837 11.0108 14.8668C11.9914 14.9015 13.1818 15.2832 14.7211 15.8893C15.0215 16.0076 15.3365 16.1351 15.6625 16.2671C16.887 16.7627 18.2685 17.3218 19.6269 17.6979C21.3818 18.1838 23.3656 18.4513 25.3716 17.8726C26.5201 17.5413 27.4496 16.8879 28.0478 16.3867C28.3575 16.1272 28.6059 15.8851 28.7805 15.7037C28.8683 15.6125 28.9389 15.5352 28.9907 15.477C29.0166 15.4478 29.0379 15.4232 29.0544 15.404C29.0627 15.3943 29.0698 15.386 29.0756 15.379L29.0835 15.3696L29.0868 15.3657L29.0882 15.364C29.0882 15.364 29.0896 15.3624 27.6656 14.0715L29.0896 15.3624C29.8112 14.4923 29.7215 13.1754 28.8893 12.421C28.0599 11.6692 26.8061 11.7597 26.0833 12.6215C26.082 12.623 26.0793 12.6262 26.0753 12.6307C26.0732 12.6331 26.0707 12.6359 26.0679 12.639C26.0494 12.6598 26.0161 12.6965 25.9696 12.7449C25.8754 12.8427 25.7326 12.9823 25.5531 13.1327C25.1728 13.4514 24.7315 13.7311 24.3106 13.8526C23.2679 14.1533 22.074 14.0614 20.648 13.6666C19.5243 13.3554 18.4201 12.9093 17.2272 12.4274C16.8694 12.2828 16.5037 12.1351 16.1271 11.9867C14.6048 11.3873 12.8561 10.7595 11.1459 10.6989C9.29581 10.6334 7.467 11.231 5.98228 12.9899C4.99293 14.1619 4.46119 15.3621 4.17657 16.2826C4.03422 16.7429 3.95227 17.1375 3.90503 17.4314C3.88137 17.5786 3.86625 17.7016 3.85662 17.7962C3.85181 17.8435 3.84835 17.8838 3.84588 17.9165C3.84465 17.9329 3.84366 17.9474 3.84287 17.96L3.84183 17.9775L3.84141 17.9851L3.84113 17.9903C3.84113 17.9903 3.84105 17.992 5.83268 18.102L3.84105 17.992C3.78291 19.1419 4.62747 20.1235 5.72742 20.1842C6.81777 20.2445 7.74979 19.3774 7.82259 18.2421L7.82303 18.2377C7.8247 18.2213 7.82918 18.1817 7.83871 18.1224C7.85787 18.0032 7.8967 17.8088 7.97197 17.5654C8.12256 17.0784 8.41331 16.4124 8.973 15.7493Z" fill="#FEA300"/>
</svg>
